<?xml version="1.0" standalone="no"?>
<!DOCTYPE svg PUBLIC "-//W3C//DTD SVG 20010904//EN"
 "http://www.w3.org/TR/2001/REC-SVG-20010904/DTD/svg10.dtd">
<svg version="1.0" xmlns="http://www.w3.org/2000/svg"
 width="192.000000pt" height="192.000000pt" viewBox="0 0 192.000000 192.000000"
 preserveAspectRatio="xMidYMid meet">

<g transform="translate(0.000000,192.000000) scale(0.100000,-0.100000)"
fill="#000000" stroke="none">
<path d="M141 1905 c-60 -19 -108 -68 -126 -129 -22 -73 -22 -1559 -1 -1631
20 -63 68 -112 130 -130 74 -22 1558 -22 1632 0 62 18 110 67 130 130 21 72
21 1558 0 1630 -20 63 -68 112 -130 130 -71 21 -1567 21 -1635 0z m1044 -330
c171 -45 300 -154 351 -297 21 -58 44 -192 44 -253 0 -64 -24 -207 -44 -265
-73 -208 -236 -362 -441 -415 -70 -18 -236 -20 -301 -4 -34 9 -48 9 -57 0 -6
-6 -39 -11 -73 -11 -52 0 -67 4 -93 26 -18 14 -33 39 -36 58 -5 26 -21 43 -79
85 -85 61 -129 123 -103 148 13 13 24 13 98 -4 l84 -20 3 31 c18 176 171 592
238 645 15 12 39 21 55 21 57 0 63 -108 15 -312 -49 -206 -81 -387 -78 -435 1
-13 92 -31 159 -32 95 -2 165 29 238 103 72 73 112 151 137 266 22 105 22 159
2 257 -25 122 -64 182 -149 226 -33 17 -57 21 -135 20 -80 -1 -114 -7 -215
-38 -192 -59 -218 -66 -260 -63 -38 3 -40 5 -38 33 4 64 164 171 330 220 96
29 257 33 348 10z"/>
</g>
</svg>
